# xmcd
#
# Track frame offsets:
#	150
#	16717
#	29890
#	43168
#	56267
#	68505
#	83550
#	94977
#	107426
#	123818
#	142344
#	155263
#	179597
#	191537
#	206668
#	222561
#	232683
#	246475
#	263470
#	280985
#
# Disc length: 3876 seconds
#
# Revision: 0
# Processed by: cddbd v1.5.2PL0 Copyright (c) Steve Scherf et al.
# Submitted via: audiograbber 1.83.01
#
DISCID=190f2214
DTITLE=Светлана Безродная и Вивальди-оркестр - Песни войны и мира CD2
DYEAR=2005
DGENRE=Vocal
TTITLE0=Священная война (А. Александров)
TTITLE1=Синий платочек (Е. Петерсбургский)
TTITLE2=О чём ты тоскуешь, товарищ моряк? (исп. А. Скляр)
TTITLE3=Три танкиста (Дм. и Дан. Покрассы)
TTITLE4=Моя Москва (исп. Д. Назаров) (И. Дунаевский - М. Исаковский, С. Агранян
TTITLE4=)
TTITLE5=На солнечной поляночке (исп. В. Раков) (В. Соловьёв-Седой - А. Фатьянов
TTITLE5=)
TTITLE6=Песня артиллеристов (Т. Хренников)
TTITLE7=Пора в путь-дорогу (из к/ф «Небесный тихоход») (исп. Д. Назаров, В. Рак
TTITLE7=ов, А.Рапопорт)
TTITLE8=За дальнею околицей (Н. Будакшин)
TTITLE9=Огонёк (исп. В. Раков) (В. Никитенко - М. Исаковский)
TTITLE10=Тёмная ночь (из к/ф «Два бойца») (Н. Богословский - В. Агатов)
TTITLE11=Одессит Мишка (исп. А. Скляр) (М. Воловац - В. Дыховичный)
TTITLE12=Рио-Рита (Тьери)
TTITLE13=Были два друга (исп. М. Державин) (С. Германов - В. Гусев)
TTITLE14=В городском саду (исп. Д. Назаров) (М. Блантер - А. Фатьянов)
TTITLE15=Случайный вальс (исп. А. Рапопорт) (М. Фрадкин - Е. Долматовский)
TTITLE16=Заветный камень (ипс. А. Скляр) (Б. Мокроусов - А. Жаров)
TTITLE17=В лесу прифронтовом (исп. Д. Назаров) (М. Блантер - М. Исаковский)
TTITLE18=Смуглянка (исп. В. Раков) (А. Новиков - Я. Шведов)
TTITLE19=Катюша (М. Блантер)
EXTD=
EXTT0=
EXTT1=
EXTT2=
EXTT3=
EXTT4=
EXTT5=
EXTT6=
EXTT7=
EXTT8=
EXTT9=
EXTT10=
EXTT11=
EXTT12=
EXTT13=
EXTT14=
EXTT15=
EXTT16=
EXTT17=
EXTT18=
EXTT19=
PLAYORDER=
